<svg xmlns="http://www.w3.org/2000/svg" aria-hidden="true" style="position:absolute;width:0;height:0;overflow:hidden"><defs><symbol id="icon-antenna" viewBox="0 0 32 32"><path fill="#2e2f42" d="m30.8 22.1-8.5-8.5 1-4.6.7.1a2.2 2.2 0 1 0-2-1.4l-5 .6L9 .2a.5.5 0 0 0-.4-.2c-.1 0-.3 0-.4.2L6.7 1.7a.5.5 0 0 0 0 .7l.8.8A14.9 14.9 0 0 0 10 21l.2.1v6.7H3.6a2.7 2.7 0 0 0-2.6 2.7v1c0 .4.2.6.5.6h24.5c.3 0 .6-.2.6-.5v-1.1c0-1.5-1.2-2.7-2.7-2.7h-6.4V25a15 15 0 0 0 10.2-1.5h-.1l.8.9.4.1.4-.1 1.5-1.5a.5.5 0 0 0 0-.8zM23.3 6.2c.2-.2.4-.3.7-.3a1 1 0 0 1 0 2.2 1 1 0 0 1-.7-1.9zM22 9.7l-.6 3-1.1-1.2L22 9.7zm-.6-.9-1.9 2L18 9.2l3.4-.5zm2.6 20c.9 0 1.6.7 1.6 1.6v.5H2.1v-.5c0-.9.8-1.6 1.6-1.6H24zm-7.5-2.1v1h-5.3v-1h5.3zm-5.3-1.1v-4c0-1.3 1.2-2.4 2.7-2.4s2.6 1 2.6 2.3v4.1h-5.3zm6.4-1.7v-2.4c0-1.8-1.7-3.4-3.7-3.4-1.4 0-2.6.7-3.3 1.8A13.8 13.8 0 0 1 8.3 4V4L27 22.7a13.6 13.6 0 0 1-9.4 1.2h.1zm11.3-.7L7.9 2l.7-.7 8 8 13 13.2-.7.7z" style="fill:var(--color1, #2e2f42)"/><path fill="#4d5ae5" d="M13.9 20.3a1.6 1.6 0 0 0 0 3.2 1.6 1.6 0 0 0 0-3.2zm.3 2-.3.1a.5.5 0 0 1 0-1 .5.5 0 0 1 .3.8z" style="fill:var(--color2, #4d5ae5)"/></symbol><symbol id="icon-astronaut" viewBox="0 0 32 32"><path fill="#4d5ae5" d="M32 4.5c0-.2-.3-.3-.5-.3l-1.9-.3-.8-1.7c-.2-.4-.8-.4-1 0L27 3.9l-2 .3a.5.5 0 0 0-.2.9L26 6.4l-.3 2a.5.5 0 0 0 .8.5l1.7-1L30 9h.3a.5.5 0 0 0 .5-.6l-.3-1.9 1.3-1.3a.5.5 0 0 0 .2-.6zM29.5 6c-.1 0-.2.2-.1.4l.1 1.1-1-.5a.5.5 0 0 0-.5 0l-1 .5.2-1v-.2l-.1-.3-.8-.8 1.1-.2c.2 0 .3-.1.4-.3l.5-1 .5 1c0 .2.2.3.4.3l1.1.2-.8.8zm-3.4 14.6h-1v1h1v-1zm0 2.2h-1v1h1v-1zM27.2 21.6h-1v1h1v-1zm-2.1 0H24v1h1v-1zm-2.7 4.8h-1v1h1v-1zm0 2.1h-1v1h1v-1zm1-1h-1v1h1v-1zM21.3 27.5h-1v1h1v-1zM16 24.3h-1v1h1v-1zm0 2h-1v1.2h1v-1.1zm1-1h-1v1h1v-1zm-2 0h-1.1v1h1v-1zM5.8 6.1H4.8v1h1v-1zm0 2.2H4.8v1h1v-1zm1-1.1H6v1h1v-1zm-2.1 0h-1v1h1v-1z" style="fill:var(--color2, #4d5ae5)"/><path fill="#2e2f42" d="M24.7 14.2c-.3-.4-.7-.7-1.2-.7h-.2c-.4 0-.8 0-1.1.3l-1.3 1-1.9 1.4-1.3-.6a7 7 0 0 0-2.9-13.2A7 7 0 0 0 9 13H6l-3.2 1.6-2 1A1.8 1.8 0 0 0 .2 18a1.8 1.8 0 0 0 2.4.7L4 18l2.3-1.2h1.3l-5.4 5.4-1.3 1.3c-.3.3-.5.8-.5 1.2 0 .5.1.9.5 1.2a1.7 1.7 0 0 0 2.3 0l1.3-1.3 1.8-1.3.9.9-3.1 3c-.3.4-.5.8-.5 1.3A1.7 1.7 0 0 0 5.2 30c.5 0 .9-.1 1.2-.5l3.5-3.4 1-1 5.2-5.7 3.5.5h.2l.1-.1 3.3-2.1 1.3-1.3a1.8 1.8 0 0 0 .2-2.3zM2.1 17.8h-.5a.7.7 0 0 1-.2-1.2l1.3-.7.3 1 .1.3-1 .6zm3.5-1.9-1.5.8-.3-.7-.2-.5 2-1v1.4zm15.1-6.6c0 1-.2 1.8-.6 2.6l-4.2-2c0-.5-.3-1-.7-1.3l1.4-4.9c2.4.8 4.1 3 4.1 5.6zM9 9.3a5.9 5.9 0 0 1 6.7-5.8L14 8.3c-1 0-1.9.8-1.9 1.8s.9 1.9 1.9 1.9c.7 0 1.3-.4 1.6-1l3.9 1.8A5.9 5.9 0 0 1 8.9 9.3zm6 .8a.8.8 0 0 1-1.6 0c0-.4.3-.8.8-.8s.8.4.8.8zm-12.4 15a.6.6 0 0 1-.9 0 .6.6 0 0 1 0-.8l1-1 .8.9-1 1zM5.7 29a.6.6 0 0 1-.9 0 .6.6 0 0 1 0-.9l1-1 .8 1-1 .9zm3.5-3.5-1.8 1.8-.9-.9 1.8-1.7.1-.2v-.5l-1.7-1.7h-.1l-.1-.1H6l-1.9 1.4-.9-1 2.4-2.3 4.4 4.3-1 1zm6.8-7h-.4v.1l-4.8 5.2-4.3-4.2 2.8-2.9a.5.5 0 0 0-.4-.9H6.7v-1.6H10a7 7 0 0 0 6.3 2v.1l2.5 1 .1.7.2 1-3-.5zm4 .2-.3-1.6 1.5-1 .9 1.2-2 1.4zm3.8-2.9-.9.8-.9-1.2.8-.6a.7.7 0 0 1 1 .1c.3.3.2.7 0 1z" style="fill:var(--color1, #2e2f42)"/><path fill="#2e2f42" d="m13.6 18.5-2.1-2a.5.5 0 0 0-.8 0l-2.1 2a.5.5 0 0 0 0 .8l2.1 2.1a.5.5 0 0 0 .8 0l2.1-2.1a.5.5 0 0 0 0-.8zm-2.5 1.8-1.4-1.4 1.4-1.4 1.4 1.4-1.4 1.4zm6-15.2L17 6s1.7.5 1.7 2.2h1.1c0-2-1.7-3-2.5-3.2zm2.6 4.2h-1v1h1v-1z" style="fill:var(--color1, #2e2f42)"/></symbol><symbol id="icon-clock" viewBox="0 0 32 32"><path fill="#2e2f42" d="M31.3 15.3a15.3 15.3 0 1 0-20 14.6H12l.3-.4L16 17.2a2 2 0 1 0-.8-3.6L10 8.5a.6.6 0 1 0-1 .9l5.2 5c-.2.3-.2.6-.2 1 0 .5.3 1 .7 1.4l-3.7 11.7a14 14 0 1 1 10.7-.4h-.1l-.4-1.9a.6.6 0 0 0-1-.3l-3.9 3.4-.2.5c0 .3.2.5.4.6l5 1.6h.1a.6.6 0 0 0 .7-.8l-.4-1.8c5.5-2.4 9.3-7.8 9.3-14v-.1zM16 14.7a.6.6 0 0 1 0 1.2.6.6 0 0 1 0-1.2zm2 14.8 2.3-2 .6 3-2.8-1z" style="fill:var(--color1, #2e2f42)"/><path fill="#4d5ae5" d="M15.4 3.2v1.3a.6.6 0 1 0 1.2 0V3.2a.6.6 0 0 0-1.2 0zM3.9 14.7a.6.6 0 1 0 0 1.2h1.3a.6.6 0 1 0 0-1.2H3.9zM28 15.9a.6.6 0 1 0 0-1.2h-1.3a.6.6 0 0 0 0 1.2h1.3z" style="fill:var(--color2, #4d5ae5)"/></symbol><symbol id="icon-diagram" viewBox="0 0 32 32"><path fill="#4d5ae5" d="M15 15h1v4.8h-1V15zm4.2 2.1h1v2.7h-1V17zm-8.5 1.6h1v1h-1v-1zm-3.2-.5h1v1.6h-1v-1.6z" style="fill:var(--color2, #4d5ae5)"/><path fill="#2e2f42" d="M1.6 28.3h25.6c.9 0 1.6-.7 1.6-1.6v-2.1c0-1-.7-1.6-1.6-1.6h-.5V9.7l3-2.9.7.2a1.6 1.6 0 1 0-1.5-1l-2.2 2.2V7c0-1-.8-1.6-1.6-1.6H3.7c-.9 0-1.6.7-1.6 1.6v16h-.5c-.9 0-1.6.7-1.6 1.6v2c0 1 .7 1.7 1.6 1.7zM30.4 4.8a.5.5 0 0 1 0 1.1.5.5 0 0 1 0-1zM3.2 7c0-.3.2-.6.5-.6h21.4c.2 0 .5.3.5.6v2.2l-1 1V8c0-.3-.3-.5-.6-.5H4.8c-.3 0-.5.2-.5.5v13.4c0 .3.2.5.5.5H24c.3 0 .5-.2.5-.5v-9.7l1-1V23H3.3V7zM8 13.9A1.6 1.6 0 1 0 9 16.6l1.9 1 .6-.1 4-4.5 3.8 3 .7-.1 3.4-3.2v8.1H5.3V8.6h18.2v2.6l-3.8 3.6-4-3a.5.5 0 0 0-.6.1l-4 4.5-1.5-.7v-.2c0-.9-.7-1.6-1.6-1.6zm.5 1.6a.5.5 0 0 1-1 0 .5.5 0 0 1 1 0zm3.2 8.5h5.4v.6c0 .3-.3.5-.6.5h-4.2a.5.5 0 0 1-.6-.5V24zm-10.6.6c0-.3.2-.6.5-.6h9v.6c0 .8.8 1.6 1.7 1.6h4.2c1 0 1.6-.8 1.6-1.6V24h9c.4 0 .6.3.6.6v2c0 .4-.2.6-.5.6H1.6a.5.5 0 0 1-.5-.5v-2.1z" style="fill:var(--color1, #2e2f42)"/></symbol><symbol id="icon-client-1" viewBox="0 0 59 32"><path d="m21.7 4 4 3.8h-7.4v18.5h19.4v-7l4 3.8V4h-20zm15.8 14.8L26.2 8h11.3v10.8zM34 23.6H21.4V11.2h.9v11.6H34v.8zM24 29.7l-.5-1H23l.7 1.4v.7h.4v-.7l.6-1.3h-.3l-.5 1zm1.7-1h.1l.8 2.1H26l-.2-.5h-.7l-.2.5h-.4l.8-2h.2zm-.4 1.4h.6l-.3-.9-.3.9zm2.5-.4-.2-.2V29l.2-.2h.6a.4.4 0 0 1 .2.6l-.1.1-.1.1-.2.1.4.5.1-.3h.3v.2l-.2.4.3.3h-.4v-.1h-.3l-.3.1h-.4a.6.6 0 0 1-.2-.2V30l.1-.1.2-.2zm.2.2-.2.2a.3.3 0 0 0 0 .3l.1.1h.2a.5.5 0 0 0 .3 0l-.4-.6zm0-.3.2-.1.1-.1v-.2c0-.1 0-.2-.2-.2l-.2.1a.3.3 0 0 0 0 .3l.1.1zm3.6.5h-.3l-.1.3-.1.1h-.5l-.1-.1-.1-.2v-1l.2-.1h.5v.1l.2.2h.3l-.1-.3-.3-.3h-.7l-.3.2-.2.3v1l.2.3a.7.7 0 0 0 .6.2h.4l.3-.3.1-.3zm2-.2v-.2l-.1-.4a1 1 0 0 0-.2-.3l-.3-.2h-.6l-.3.2-.2.3v1l.2.3a.8.8 0 0 0 .6.2h.3l.3-.2.2-.3v-.5zm-.4-.2v.5l-.1.2-.2.1h-.4l-.2-.1v-1.2l.2-.1h.4l.2.1v.5z"/></symbol><symbol id="icon-client-2" viewBox="0 0 59 32"><path d="M28.6 3.4h-1.4c-2.2.1-4.3.7-6.1 1.6H21v12.7l.6-.2a22.5 22.5 0 0 1 6.2-1V18h-.6c-1.3 0-2.5.3-3.7.6h.1c-1.6.3-3 1-4.3 1.6h.1V4c1.3-.8 2.8-1.4 4.3-1.8h.1c1.3-.4 2.7-.6 4.2-.6h.3a16.9 16.9 0 0 1 3 .4v1.6l-2-.3h-.6zm3 1.7h1c1.6 0 3.1-.2 4.6-.6H37c1.7-.4 3-1 4.4-1.7h-.1v16a16.7 16.7 0 0 1-8.6 2.3h-.2c-1 0-2.1 0-3.1-.3v-16a13.3 13.3 0 0 0 2.1.3zm8 0-.6.3-1.6.5c-1.4.3-3 .6-4.8.6h-1.5v13h1.5c1.4 0 2.7-.2 4-.5h-.2l3-1 .2-.2V5.2zM20.4 25.8a.8.8 0 0 0-.6-.2 1 1 0 0 0-.4 0l-.5.5v3l.3.3.3.1h.6c.4-.1.6-.5.6-.8v-.3H20v.4l-.1.1-.2.1h-.3V26.2l.2-.2c.2 0 .3 0 .3.2l.1.2v.2h.6V26.1l-.3-.3zm3.4 0a1 1 0 0 0-1-.2l-.5.5-.1.4V29l.3.3.3.2a1 1 0 0 0 1-.2.9.9 0 0 0 .3-.7v-2L24 26a1 1 0 0 0-.2-.3zm-.3 2.8v.3a.4.4 0 0 1-.6 0l-.1-.3v-2.4a.4.4 0 0 1 .6 0l.1.3v2.1zm4.7 1v-4h-.5l-.8 2-.7-2h-.5v4h.5V27l.6 1.7h.3l.5-1.7v2.4h.6zm3.2-3.7-.3-.2h-1.3v3.8h.6V28h.3l.5-.1.3-.3.1-.3v-1.1l-.2-.3zm-.3 1.2v.2l-.2.1h-.5v-1.3h.5l.2.2v.8zm3-1.5h-.5l-.9 4h.6l.2-.9h.7l.2.8h.6l-1-3.9zm-.6 2.6.3-1.5.3 1.5h-.6zm4.2-.2-.9-2.4h-.5v4h.6v-2.4l.8 2.3h.5v-3.9h-.5V28zm3.4-2.4-.4 1.6-.5-1.6h-.6l.8 2.3v1.6h.5V28l.8-2.3h-.6zm-22.2 5h.2v.8h.2v-.7h.3v-.2h-.7v.2zm2.2-.1-.3 1h.2v-.3h.4v.2h.3l-.4-.9h-.2zm0 .6.1-.4.1.4h-.2zm2.3 0h.2l-.2.2-.2-.1V31c0-.3 0-.4.2-.4l.2.2h.2c0-.2-.2-.3-.4-.3l-.3.1a.4.4 0 0 0-.2.4l.1.3.4.1.4-.1v-.4h-.4v.2zm2.3-.6h-.2v1h.6v-.2h-.4v-.8zm2 0h-.3v1h.2v-1zm1.8.6-.4-.6H29v1h.1v-.7l.4.6h.2v-.9h-.2v.6zm1.7 0h.5v-.2h-.5v-.2h.5v-.2H31v1h.7v-.2h-.5V31zm4.2-.2H35v-.4h-.2v1h.2V31h.4v.4h.2v-.9h-.2v.4zm1.7.1h.5V31H37v-.2h.5v-.2h-.7v1h.7v-.2h-.5V31zm2.3 0c.2 0 .3-.1.3-.2a.2.2 0 0 0-.1-.2l-.2-.1h-.5v1h.2V31h.2v.1l.2.3h.3l-.2-.2-.2-.2zm-.1-.1H39v-.2h.2a.5.5 0 0 1 .2 0v.2h-.2zm2 .1h.4V31h-.5v-.2h.5v-.2H41v1h.7v-.2h-.5V31z"/></symbol><symbol id="icon-client-3" viewBox="0 0 59 32"><path d="m21 28.1.2.2a1 1 0 0 1-.3.2h-1a1 1 0 0 1-.6-.5V27l.2-.3.4-.2.5-.1h.5l.3.2-.1.2H20.7l-.2-.2h-.2a1 1 0 0 0-.3 0l-.3.2-.2.3v.7c0 .2.2.3.4.4H20.6c.1 0 .3 0 .4-.2zm3.7-.6-.1.4-.2.4a1 1 0 0 1-.4.2 1.5 1.5 0 0 1-1 0l-.3-.2a1 1 0 0 1-.3-.3 1 1 0 0 1 0-.9l.3-.3.3-.2h1c.1 0 .3 0 .4.2.2.2.3.4.3.7zm-.4 0v-.3c0-.2-.2-.4-.4-.4a1.1 1.1 0 0 0-.8 0l-.2.1-.2.3v.7a.7.7 0 0 0 .5.4h.6l.3-.2.2-.2v-.4zm2.9.4.9-1.3h.3v2h-.3V27l-.8 1.2H27l-.9-1.3v1.6H26v-2h.4l.8 1.3zm3-.1v.7h-.3v-2H31l.3.2.1.2v.2c0 .2 0 .4-.2.5l-.2.1h-.8zm0-.2H30.8l.2-.2.1-.3V27l-.1-.2a.7.7 0 0 0-.4 0h-.4v.8zm4.2 1h-.2l-.1-.1-.2-.5h-1.1l-.2.5h-.4l1-2h.3l1 2zm-1.5-.8h.9l-.4-.8v-.2h-.1v.2l-.4.8zm2.9-1.3 1.4 1.6v-1.6h.3v2h-.2L35.8 27v1.5h-.3v-2h.2zm4 1.2v.8h-.3v-.8l-.9-1.2h.4l.6.9v.1h.1v-.1l.6-.8h.4l-.9 1.1zM27 23.1h.4c2.2-.8 4-2.1 5.2-3.8s1.9-3.6 1.8-5.6l-2.3-2a10 10 0 0 1-.7 6.3 12 12 0 0 1-4.4 5.1z"/><path d="M26.2 23c2.2-1.3 3.8-3.1 4.7-5.2s1-4.4.5-6.6L28 8.3A12 12 0 0 1 26.2 23zm11.3-7c-.6 2.2-2 4.2-4 5.7l-1.7 1-.1.1c1.6-.4 3.1-1.1 4.3-2.1s2.2-2.2 2.9-3.5L37.5 16z"/><path d="m37 15.7-2-1.6c0 1.8-.6 3.7-1.8 5.3s-2.8 2.9-4.7 3.8l1.3-.1c1.8-.6 3.4-1.6 4.7-3s2-2.8 2.5-4.4zM26.4 7.1l-2.3-2c-2 .7-3.8 2-5 3.5s-2 3.4-2 5.2c0 2.1.9 4.1 2.4 5.8s3.6 2.8 6 3.3c2-2.2 3.3-5 3.5-7.8s-.7-5.6-2.6-8zm15.9 8.3c0-2.5-1.2-4.8-3.2-6.6a12.4 12.4 0 0 0-11.7-2v-.1l14.2 12a8 8 0 0 0 .7-3.3z"/></symbol><symbol id="icon-client-4" viewBox="0 0 59 32"><path d="M13.8 12.3c-1.4 0-2.5 1-2.5 2.2 0 1.3 1 2.2 2.5 2.2 1.3 0 2.4-1 2.4-2.2 0-1.2-1-2.2-2.4-2.2zm18.2-.7c0-1.7-.8-3.4-2.1-4.6a7.6 7.6 0 0 0-5-1.9c-2 0-3.8.7-5.1 2s-2.1 2.8-2.1 4.5V21S32 19.6 32 11.6zM6.3 24c0 1.2.5 2.3 1.4 3.2s2.2 1.3 3.6 1.3c1.3 0 2.5-.5 3.5-1.3s1.4-2 1.4-3.2v-6.6s-10 1-10 6.6zm5 1.2-.8-.2-.4-.6a1 1 0 0 1-.1-.6c0-.3.2-.5.3-.6l.7-.4.8.1c.3.1.4.2.5.4a1 1 0 0 1-.1 1.5l-.4.3h-.5zm9-2.1v2.4h-.5v-2.4h.5zm1 1v.4h-1v-.4h1zm.1-1v.3h-1.2v-.3h1.2zm2.3 1.1v.6c0 .2-.2.3-.3.4l-.3.2a1 1 0 0 1-.8 0 1 1 0 0 1-.4-.2l-.2-.4v-1.1l.2-.4.4-.2h.8l.3.2.3.4v.5zm-.5.1V24l-.1-.3-.2-.1h-.4l-.2.1-.1.3v.8l.1.2.2.2h.4l.2-.2v-.2l.1-.4zm2.2.6v-.2h-.1l-.2-.2H25a3 3 0 0 1-.4-.2l-.2-.1-.2-.2v-.6l.2-.2.3-.1a1.3 1.3 0 0 1 .8 0c.2 0 .3.2.3.3l.2.4h-.5v-.2l-.2-.1-.2-.1h-.3v.2h-.1V24h.2l.2.2.4.1.3.2a.6.6 0 0 1 .2.4c0 .3-.1.4-.3.5l-.3.2h-.7a1 1 0 0 1-.3-.2l-.2-.2-.1-.4h.5v.2l.1.1.2.1h.4l.2-.2zm1.9-1.8v2.4h-.5v-2.4h.5zm.7 0v.3h-2v-.3h2zm2 2v.4h-1.3v-.4H30zm-1.2-2v2.4h-.5v-2.4h.5zm1 1v.3h-1.1v-.4h1.1zm.2-1v.3h-1.3v-.3H30zm.3 0h1.3c.2 0 .3.2.4.3v.7l-.2.3-.3.1h-.9v-.3h.8l.1-.2v-.4l-.1-.1H30.8v2h-.5V23zm1.3 2.4-.5-1.1h.5l.6 1h-.6zm2.7-.9h-.7v-.4H34.5l.1-.2a.5.5 0 0 0 0-.4l-.1-.1h-.7v2h-.5V23h1c.1 0 .3 0 .4.2a.7.7 0 0 1 .5.6l-.1.5c-.1.2-.2.2-.4.2l-.4.1zm2.9.5v.4h-1.3v-.4h1.3zm-1.2-2v2.4h-.5v-2.4h.5zm1 1v.3h-1.1v-.4h1zm.2-1v.3h-1.3v-.3h1.3zm1.4 0v2.4H38v-2.4h.5zm.7 0v.3h-2v-.3h2zm2 2v.4h-1.4v-.4h1.3zm-1.2-2v2.4h-.5v-2.4h.5zm1 1v.3h-1.2v-.4h1.2zm.1-1v.3H40v-.3h1.3zm.3 0H43l.3.3.1.4v.3l-.2.3-.3.1H42v-.3h.8l.1-.2v-.4l-.1-.1H42v2h-.5V23zm1.4 2.4-.6-1.1h.6l.5 1H43zM45 25v-.2l-.2-.2h-.3l-.3-.2-.3-.1-.1-.2-.1-.3v-.3l.3-.2.2-.1a1.3 1.3 0 0 1 .9 0l.3.3.1.4H45v-.2l-.2-.1-.2-.1h-.2l-.2.1V24l.1.1h.2l.2.2.3.1.3.2a.6.6 0 0 1 .2.4c0 .3-.1.4-.2.5l-.3.2h-.7a1 1 0 0 1-.4-.2l-.2-.2v-.4h.4v.2l.2.1.1.1h.4l.2-.2z"/></symbol><symbol id="icon-client-5" viewBox="0 0 59 32"><path d="m15.3 25.4.2.5v.4l-.3.3a1.5 1.5 0 0 1-1 .3h-1.6v-3.5H14.3c.3 0 .6 0 .8.2l.3.3v.3c0 .2 0 .4-.2.6a1 1 0 0 1-.4.3c.2 0 .4.1.5.3zm-2-.6h1.2l.1-.2a.4.4 0 0 0 0-.2v-.2l-.1-.2a.7.7 0 0 0-.5 0h-.7v.8zm1.3 1.4V26l.1-.2v-.2l-.1-.1a.8.8 0 0 0-.5-.2h-.8v1h.8l.5-.1zm4 .7-.9-1.4h-.3v1.4h-.8v-3.5h1.6c.4 0 .7 0 1 .3a1 1 0 0 1 .1 1.4l-.8.4 1 1.4h-.8zM17.5 25h.6c.5 0 .7-.2.7-.5v-.2l-.2-.2a.7.7 0 0 0-.5-.2h-.6V25zm5.5 1.2h-1.5l-.3.7h-.8l1.4-3.5h.9l1.4 3.5h-.8l-.3-.7zm-.2-.6-.5-1.5-.6 1.5h1.1zm5.6 1.3h-.8l-1.7-2.4v2.4H25v-3.5h.8l1.7 2.4v-2.4h.8v3.5zm4.4-.9c-.1.3-.4.5-.7.6-.3.2-.7.3-1 .3h-1.4v-3.5H31c.4 0 .7 0 1 .2.3.1.6.3.7.6a1.9 1.9 0 0 1 0 1.8zm-.9 0c.3-.3.4-.6.4-.9 0-.3-.1-.6-.4-.8a1.4 1.4 0 0 0-1-.3h-.5v2.2h.6c.4 0 .7 0 1-.3zM23.4 3.8s10 3.4 9.9 8.3v8.4s-10-3.4-9.9-8.4V4zm18.8 14.7c1.9-1.2 4-1.9 6.4-2.1v-2.6c-2.7.9-4.9 2.6-6.4 4.7z"/><path d="M41 19.4c1.6-2.8 4.3-5 7.6-6V5.7s-14.3 4.9-14 11.9v11.9l1.6-.6v-1.2a12 12 0 0 1 4.9-8.4z"/><path d="M39.7 23.8c0-.9.3-1.7.5-2.5a11 11 0 0 0-3 7.3l3-1.5-.3.2a10.8 10.8 0 0 1-.2-3.5zm.6 0a10.2 10.2 0 0 0 .2 3.2c3.8-2.1 8.2-5.4 8-9.3v-.4c-2.7.3-5.3 1.4-7.4 3.2-.4 1-.7 2.1-.8 3.3z"/></symbol><symbol id="icon-client-6" viewBox="0 0 59 32"><path d="M30.6 15.7a1.7 1.7 0 0 1-.4-1.2V13c0-.5.2-.9.4-1.2s.6-.4 1.2-.4c.5 0 .9.2 1 .4.3.3.4.6.4 1v.4h-1v-1a.5.5 0 0 0-.4-.1h-.4l-.1.3v3l.2.1h.6l.2-.3v-.8h1v.4c0 .4-.2.8-.4 1-.2.3-.6.4-1.1.4s-1-.1-1.2-.4zm3.9 0c-.2-.3-.4-.6-.4-1.1v-1.8c0-.5.2-.8.4-1s.6-.5 1.2-.5c.5 0 1 .2 1.2.4.2.3.3.6.3 1.1v1.8c0 .5 0 .8-.3 1.1s-.7.4-1.2.4-1-.1-1.2-.4zm1.6-.4c.1-.2.2-.4.1-.5v-2.2a1 1 0 0 0 0-.5l-.3-.1a.5.5 0 0 0-.2 0h-.3l-.2.1v3.2l.2.1a.7.7 0 0 0 .5 0l.2-.1zm2.3-3.9h1l.7 3.2.8-3.2h1L42 16h-.7l-.1-3.2-.8 3.2H40l-.8-3.2V16h-.8v-4.6zm4.7 0h1.6c1 0 1.4.4 1.4 1.3 0 .8-.5 1.3-1.5 1.3h-.5v2h-1v-4.6zm1.4 2a.8.8 0 0 0 .5-.2.7.7 0 0 0 .2-.5l-.1-.4v-.1l-.2-.1a1 1 0 0 0-.4-.1H44v1.4h.4zm3-2h1l1 4.6h-.8l-.2-1h-1l-.2 1h-.9l1-4.6zm.9 3-.4-2-.4 2h.8zm2-3h.7l1.3 2.6v-2.6h.8V16h-.6l-1.3-2.7V16h-.8v-4.6zm4.7 2.9-1-2.9h.9l.6 1.8.7-1.8h.8l-1 2.9V16h-1v-1.7zm-23 3.7v.3h-.8v1.9H31v-2h-.8V18H32zm2.5 2.2h-.3V20l-.3-.5h-1.1l-.3.5h-.3l1-2h.3l1 2zm-1.6-.8h.9l-.4-.9v-.2l-.1.1v.1l-.4.9zm3.3.6h.1a1.2 1.2 0 0 0 .3-.1h.2v-.5h-.5V19h.8v.9l-.4.1a1.8 1.8 0 0 1-.6 0h-.5l-.4-.2a1 1 0 0 1-.2-.3L35 19v-.4l.3-.4.4-.2a1.6 1.6 0 0 1 .8 0 1.3 1.3 0 0 1 .6.2v.1h-.4l-.2-.1h-.7l-.2.2-.2.3a1 1 0 0 0 0 .7l.2.2a.8.8 0 0 0 .7.3zm3 0h1.1v.2H39V18h.4v2zm2.2.2h-.3V18h.3v2.2zm1.3-2.1 1.4 1.6V18h.3v2.2h-.2l-1.5-1.7v1.7h-.3V18h.2zm4.2 0v.2h-1.2v.7h1v.2h-1v.7H47v.3h-1.5V18H47zM12 4.8 27 8.6v12.7L12 17.6V5zm-1-1v14.3l16.7 4.1V8L11.2 3.9z"/><path d="M20.1 29 3.4 25V10.4l16.7 4.1V29z"/><path d="M11.4 4.8 26 8.4l-6.2 5.3-14.6-3.6 6.2-5.3zm-.2-1-7.8 6.7 16.7 4.1L27.8 8 11.2 3.9zM21 28.3l6.8-5.9-6.8-1.6v7.5z"/></symbol><symbol id="icon-facebook" viewBox="0 0 32 32"><path d="M21.3 5.3h3v-5C23 0 21.6 0 20 0H20c-4.2 0-7.1 2.6-7.1 7.5V12H8.2v5.7H13V32h5.7V17.7h4.5l.7-5.7h-5.2V8c0-1.6.4-2.7 2.7-2.7z"/></symbol><symbol id="icon-instagram" viewBox="0 0 32 32"><path d="M32 9.4c-.1-1.7-.4-2.9-.8-3.9s-1-2-1.8-2.8A7.9 7.9 0 0 0 26.6.9c-1-.5-2.2-.7-4-.8a110.6 110.6 0 0 0-17 .7c-1.1.5-2 1-2.9 1.9C2 3.5 1.3 4.4 1 5.5.5 6.5.2 7.7.2 9.4a110.5 110.5 0 0 0 .7 17c.4 1.2 1 2.1 1.8 3 .8.7 1.8 1.4 2.9 1.8 1 .4 2.2.6 3.9.7a116.2 116.2 0 0 0 17-.7 8.2 8.2 0 0 0 4.7-4.7c.4-1 .7-2.2.8-3.9a116.2 116.2 0 0 0 0-13.2zm-3 13c0 1.6-.2 2.5-.5 3a5.3 5.3 0 0 1-3 3c-.6.3-1.4.6-3 .6a111.7 111.7 0 0 1-15.9-.5 5 5 0 0 1-1.8-1.2 5 5 0 0 1-1.2-1.8c-.2-.6-.5-1.5-.5-3a113.8 113.8 0 0 1 .5-16l1.2-1.8a5 5 0 0 1 1.8-1.2c.6-.2 1.5-.4 3-.5a113.7 113.7 0 0 1 15.9.5 5 5 0 0 1 1.8 1.2 5 5 0 0 1 1.2 1.9c.3.5.5 1.4.6 3a111.7 111.7 0 0 1 0 12.9z"/><path d="M16 7.8a8.2 8.2 0 0 0 0 16.4 8.2 8.2 0 0 0 0-16.4zm0 13.5a5.3 5.3 0 1 1 0-10.6 5.3 5.3 0 1 1 0 10.6zM26.6 7.5a2 2 0 0 1-3.8 0 2 2 0 0 1 3.8 0z"/></symbol><symbol id="icon-linkedin" viewBox="0 0 32 32"><path d="M32 32V20.3c0-5.8-1.2-10.2-8-10.2a7 7 0 0 0-6.2 3.4h-.1v-2.9h-6.4V32H18V21.4c0-2.8.6-5.5 4-5.5s3.5 3.2 3.5 5.7V32H32zM.5 10.6h6.7V32H.5V10.6zM3.8 0C1.8 0 0 1.7 0 3.8s1.7 4 3.8 4c2.2 0 3.9-1.8 3.9-4S6 0 3.8 0z"/></symbol><symbol id="icon-twitter" viewBox="0 0 32 32"><path d="M32 6c-1.1.6-2.4 1-3.7 1.1 1.3-.8 2.3-2 2.8-3.6-1.2.7-2.6 1.3-4 1.6h-.2a6.5 6.5 0 0 0-11.3 4.5c0 .5 0 1 .2 1.5A18.6 18.6 0 0 1 2.3 4.2c-.6 1-1 2-1 3.3 0 2.3 1.2 4.3 3 5.4-1.1 0-2.2-.3-3-.8v.1c0 3.2 2.2 5.8 5.2 6.5l-1.6.2h-.2l-1.2-.1a6.6 6.6 0 0 0 6.2 4.5c-2.2 1.8-5 2.8-8.1 2.8H0A18.5 18.5 0 0 0 28.7 9.5c1.3-1 2.4-2 3.3-3.4z"/></symbol>
<symbol id="icon-close-black-18dp-2-1" viewBox="0 0 32 32">
<path d="M32 3.224l-3.224-3.224-12.776 12.776-12.776-12.776-3.224 3.224 12.776 12.776-12.776 12.776 3.224 3.224 12.776-12.776 12.776 12.776 3.224-3.224-12.776-12.776 12.776-12.776z"></path>
</symbol>
<symbol id="icon-user" viewBox="0 0 32 32">
<path d="M16 16c4.42 0 8-3.58 8-8s-3.58-8-8-8c-4.42 0-8 3.58-8 8s3.58 8 8 8zM16 20c-5.34 0-16 2.68-16 8v2c0 1.1 0.9 2 2 2h28c1.1 0 2-0.9 2-2v-2c0-5.32-10.66-8-16-8z"></path>
</symbol>
<symbol id="icon-phone" viewBox="0 0 32 32">
<path d="M28.865 21.822l-4.525-0.517c-1.087-0.125-2.155 0.249-2.921 1.015l-3.278 3.278c-5.041-2.565-9.174-6.68-11.739-11.739l3.296-3.296c0.766-0.766 1.14-1.835 1.015-2.921l-0.517-4.489c-0.214-1.799-1.728-3.153-3.545-3.153h-3.082c-2.013 0-3.687 1.675-3.563 3.687 0.944 15.213 13.111 27.362 28.306 28.306 2.013 0.125 3.687-1.55 3.687-3.563v-3.082c0.018-1.799-1.336-3.313-3.135-3.527z"></path>
</symbol>
<symbol id="icon-email" viewBox="0 0 43 32">
<path d="M37.333 0h-32c-2.2 0-3.98 1.8-3.98 4l-0.020 24c0 2.2 1.8 4 4 4h32c2.2 0 4-1.8 4-4v-24c0-2.2-1.8-4-4-4zM36.533 8.5l-14.14 8.84c-0.64 0.4-1.48 0.4-2.12 0l-14.14-8.84c-0.5-0.32-0.8-0.86-0.8-1.44 0-1.34 1.46-2.14 2.6-1.44l13.4 8.38 13.4-8.38c1.14-0.7 2.6 0.1 2.6 1.44 0 0.58-0.3 1.12-0.8 1.44z"></path>
</symbol>

</defs></svg>